# xmcd
#
# Track frame offsets:
#	150
#	16462
#	33782
#	57570
#
# Disc length: 1080 seconds
#
# Revision: 4
# Processed by: cddbd v1.5.2PL0 Copyright (c) Steve Scherf et al.
# Submitted via: audiograbber 1.83.01
#
DISCID=2b043604
DTITLE=Babyboom - Babyboom 2000
DYEAR=1999
DGENRE=Trance
TTITLE0=Babyboom 2000 (Central Seven Radio Mix)
TTITLE1=Babyboom 2000 (Hard Radio Mix)
TTITLE2=Babyboom 2000 (Central Seven Remix)
TTITLE3=Babyboom 2000 (Hard and Extended Mix)
EXTD=
EXTT0=
EXTT1=
EXTT2=
EXTT3=
PLAYORDER=
